<mxfile host="app.diagrams.net" modified="2023-03-24T02:48:54.493Z" agent="5.0 (Windows NT 10.0; Win64; x64) AppleWebKit/537.36 (KHTML, like Gecko) Chrome/111.0.0.0 Safari/537.36" etag="eDyO4uNdsUy1eZL1UozM" version="20.7.4" type="github">
  <diagram name="第 1 页" id="DEgQuvAEYnM6CAFVu9Ne">
    <mxGraphModel dx="1996" dy="1145" grid="1" gridSize="10" guides="1" tooltips="1" connect="1" arrows="1" fold="1" page="1" pageScale="1" pageWidth="827" pageHeight="1169" math="0" shadow="0">
      <root>
        <mxCell id="0" />
        <mxCell id="1" parent="0" />
        <mxCell id="4vFp2I5ZALkrV1MqwiMS-1" value="" style="rounded=1;whiteSpace=wrap;html=1;" parent="1" vertex="1">
          <mxGeometry x="190" y="120" width="360" height="260" as="geometry" />
        </mxCell>
        <mxCell id="4vFp2I5ZALkrV1MqwiMS-2" value="&lt;b&gt;preprocess_ctrl&lt;/b&gt;" style="rounded=1;whiteSpace=wrap;html=1;" parent="1" vertex="1">
          <mxGeometry x="220" y="152.5" width="110" height="195" as="geometry" />
        </mxCell>
        <mxCell id="4vFp2I5ZALkrV1MqwiMS-3" value="&lt;b&gt;img2col&lt;/b&gt;" style="rounded=1;whiteSpace=wrap;html=1;" parent="1" vertex="1">
          <mxGeometry x="400" y="170" width="120" height="60" as="geometry" />
        </mxCell>
        <mxCell id="4vFp2I5ZALkrV1MqwiMS-4" value="&lt;b&gt;transposition&lt;/b&gt;" style="rounded=1;whiteSpace=wrap;html=1;" parent="1" vertex="1">
          <mxGeometry x="400" y="270" width="120" height="60" as="geometry" />
        </mxCell>
        <mxCell id="4vFp2I5ZALkrV1MqwiMS-5" value="" style="shape=flexArrow;endArrow=classic;startArrow=classic;html=1;rounded=0;fillColor=#FFFFFF;" parent="1" edge="1">
          <mxGeometry width="100" height="100" relative="1" as="geometry">
            <mxPoint x="110" y="249.66" as="sourcePoint" />
            <mxPoint x="220" y="249.66" as="targetPoint" />
          </mxGeometry>
        </mxCell>
        <mxCell id="4vFp2I5ZALkrV1MqwiMS-6" value="" style="shape=flexArrow;endArrow=classic;startArrow=classic;html=1;rounded=0;fillColor=#FFFFFF;" parent="1" edge="1">
          <mxGeometry width="100" height="100" relative="1" as="geometry">
            <mxPoint x="330" y="199.66" as="sourcePoint" />
            <mxPoint x="400" y="200" as="targetPoint" />
          </mxGeometry>
        </mxCell>
        <mxCell id="4vFp2I5ZALkrV1MqwiMS-8" value="" style="shape=flexArrow;endArrow=classic;startArrow=classic;html=1;rounded=0;fillColor=#FFFFFF;" parent="1" edge="1">
          <mxGeometry width="100" height="100" relative="1" as="geometry">
            <mxPoint x="330" y="299.65999999999997" as="sourcePoint" />
            <mxPoint x="400" y="300" as="targetPoint" />
          </mxGeometry>
        </mxCell>
        <mxCell id="4vFp2I5ZALkrV1MqwiMS-9" value="&lt;b&gt;PREPROCESS&lt;/b&gt;" style="text;html=1;strokeColor=none;fillColor=none;align=center;verticalAlign=middle;whiteSpace=wrap;rounded=0;" parent="1" vertex="1">
          <mxGeometry x="460" y="122.5" width="60" height="30" as="geometry" />
        </mxCell>
        <mxCell id="4vFp2I5ZALkrV1MqwiMS-10" value="&lt;b&gt;&lt;font style=&quot;font-size: 20px;&quot;&gt;外部CTRL&lt;/font&gt;&lt;/b&gt;" style="text;html=1;align=center;verticalAlign=middle;resizable=0;points=[];autosize=1;strokeColor=none;fillColor=none;" parent="1" vertex="1">
          <mxGeometry y="230" width="120" height="40" as="geometry" />
        </mxCell>
        <mxCell id="v-pygowpI5FYSpeoAwpi-1" value="" style="rounded=1;whiteSpace=wrap;html=1;" parent="1" vertex="1">
          <mxGeometry x="190" y="450" width="360" height="210" as="geometry" />
        </mxCell>
        <mxCell id="v-pygowpI5FYSpeoAwpi-4" value="&lt;b style=&quot;border-color: var(--border-color);&quot;&gt;img2col&lt;/b&gt;" style="text;html=1;strokeColor=none;fillColor=none;align=center;verticalAlign=middle;whiteSpace=wrap;rounded=0;" parent="1" vertex="1">
          <mxGeometry x="460" y="460" width="60" height="30" as="geometry" />
        </mxCell>
        <mxCell id="v-pygowpI5FYSpeoAwpi-5" value="&lt;b&gt;img2col_ctrl&lt;/b&gt;" style="rounded=1;whiteSpace=wrap;html=1;" parent="1" vertex="1">
          <mxGeometry x="220" y="485" width="100" height="140" as="geometry" />
        </mxCell>
        <mxCell id="74QrzUO3RT6jJRRVH8g--1" value="" style="rounded=0;whiteSpace=wrap;html=1;" vertex="1" parent="1">
          <mxGeometry x="-160" y="670" width="120" height="60" as="geometry" />
        </mxCell>
        <mxCell id="74QrzUO3RT6jJRRVH8g--4" value="" style="edgeStyle=orthogonalEdgeStyle;rounded=0;orthogonalLoop=1;jettySize=auto;html=1;" edge="1" parent="1" source="74QrzUO3RT6jJRRVH8g--2" target="74QrzUO3RT6jJRRVH8g--3">
          <mxGeometry relative="1" as="geometry" />
        </mxCell>
        <mxCell id="74QrzUO3RT6jJRRVH8g--2" value="接受外部指令" style="rounded=1;whiteSpace=wrap;html=1;" vertex="1" parent="1">
          <mxGeometry x="30" y="900" width="120" height="60" as="geometry" />
        </mxCell>
        <mxCell id="74QrzUO3RT6jJRRVH8g--6" value="" style="edgeStyle=orthogonalEdgeStyle;rounded=0;orthogonalLoop=1;jettySize=auto;html=1;" edge="1" parent="1" source="74QrzUO3RT6jJRRVH8g--3" target="74QrzUO3RT6jJRRVH8g--5">
          <mxGeometry relative="1" as="geometry" />
        </mxCell>
        <mxCell id="74QrzUO3RT6jJRRVH8g--13" value="" style="edgeStyle=orthogonalEdgeStyle;rounded=0;orthogonalLoop=1;jettySize=auto;html=1;" edge="1" parent="1" source="74QrzUO3RT6jJRRVH8g--3" target="74QrzUO3RT6jJRRVH8g--12">
          <mxGeometry relative="1" as="geometry" />
        </mxCell>
        <mxCell id="74QrzUO3RT6jJRRVH8g--3" value="根据外部指令连接到对应模块" style="rounded=1;whiteSpace=wrap;html=1;" vertex="1" parent="1">
          <mxGeometry x="30" y="1040" width="120" height="60" as="geometry" />
        </mxCell>
        <mxCell id="74QrzUO3RT6jJRRVH8g--8" value="" style="edgeStyle=orthogonalEdgeStyle;rounded=0;orthogonalLoop=1;jettySize=auto;html=1;" edge="1" parent="1" source="74QrzUO3RT6jJRRVH8g--5" target="74QrzUO3RT6jJRRVH8g--7">
          <mxGeometry relative="1" as="geometry" />
        </mxCell>
        <mxCell id="74QrzUO3RT6jJRRVH8g--5" value="接受外部数据" style="rounded=1;whiteSpace=wrap;html=1;" vertex="1" parent="1">
          <mxGeometry x="30" y="1180" width="120" height="60" as="geometry" />
        </mxCell>
        <mxCell id="74QrzUO3RT6jJRRVH8g--23" value="" style="edgeStyle=orthogonalEdgeStyle;rounded=0;orthogonalLoop=1;jettySize=auto;html=1;" edge="1" parent="1" source="74QrzUO3RT6jJRRVH8g--7" target="74QrzUO3RT6jJRRVH8g--22">
          <mxGeometry relative="1" as="geometry" />
        </mxCell>
        <mxCell id="74QrzUO3RT6jJRRVH8g--7" value="进行计算，向外部输出数据" style="rounded=1;whiteSpace=wrap;html=1;" vertex="1" parent="1">
          <mxGeometry x="30" y="1320" width="120" height="60" as="geometry" />
        </mxCell>
        <mxCell id="74QrzUO3RT6jJRRVH8g--11" style="edgeStyle=orthogonalEdgeStyle;rounded=0;orthogonalLoop=1;jettySize=auto;html=1;" edge="1" parent="1" source="74QrzUO3RT6jJRRVH8g--9" target="74QrzUO3RT6jJRRVH8g--2">
          <mxGeometry relative="1" as="geometry" />
        </mxCell>
        <mxCell id="74QrzUO3RT6jJRRVH8g--9" value="复位" style="rounded=1;whiteSpace=wrap;html=1;" vertex="1" parent="1">
          <mxGeometry x="30" y="760" width="120" height="60" as="geometry" />
        </mxCell>
        <mxCell id="74QrzUO3RT6jJRRVH8g--18" value="" style="edgeStyle=orthogonalEdgeStyle;rounded=0;orthogonalLoop=1;jettySize=auto;html=1;" edge="1" parent="1" source="74QrzUO3RT6jJRRVH8g--12" target="74QrzUO3RT6jJRRVH8g--17">
          <mxGeometry relative="1" as="geometry" />
        </mxCell>
        <mxCell id="74QrzUO3RT6jJRRVH8g--12" value="接受外部数据" style="rounded=1;whiteSpace=wrap;html=1;" vertex="1" parent="1">
          <mxGeometry x="320" y="1040" width="120" height="60" as="geometry" />
        </mxCell>
        <mxCell id="74QrzUO3RT6jJRRVH8g--14" value="&lt;b&gt;transpose&lt;/b&gt;" style="text;html=1;align=center;verticalAlign=middle;resizable=0;points=[];autosize=1;strokeColor=none;fillColor=none;" vertex="1" parent="1">
          <mxGeometry x="90" y="1130" width="80" height="30" as="geometry" />
        </mxCell>
        <mxCell id="74QrzUO3RT6jJRRVH8g--15" value="&lt;b&gt;img2col&lt;/b&gt;" style="text;html=1;align=center;verticalAlign=middle;resizable=0;points=[];autosize=1;strokeColor=none;fillColor=none;" vertex="1" parent="1">
          <mxGeometry x="205" y="1040" width="70" height="30" as="geometry" />
        </mxCell>
        <mxCell id="74QrzUO3RT6jJRRVH8g--16" value="接受外部数据" style="rounded=1;whiteSpace=wrap;html=1;" vertex="1" parent="1">
          <mxGeometry x="680" y="2140" width="120" height="60" as="geometry" />
        </mxCell>
        <mxCell id="74QrzUO3RT6jJRRVH8g--20" value="" style="edgeStyle=orthogonalEdgeStyle;rounded=0;orthogonalLoop=1;jettySize=auto;html=1;" edge="1" parent="1" source="74QrzUO3RT6jJRRVH8g--17" target="74QrzUO3RT6jJRRVH8g--19">
          <mxGeometry relative="1" as="geometry" />
        </mxCell>
        <mxCell id="74QrzUO3RT6jJRRVH8g--17" value="进行IMG2COL计算" style="rounded=1;whiteSpace=wrap;html=1;" vertex="1" parent="1">
          <mxGeometry x="320" y="1180" width="120" height="60" as="geometry" />
        </mxCell>
        <mxCell id="74QrzUO3RT6jJRRVH8g--25" value="" style="edgeStyle=orthogonalEdgeStyle;rounded=0;orthogonalLoop=1;jettySize=auto;html=1;" edge="1" parent="1" source="74QrzUO3RT6jJRRVH8g--19" target="74QrzUO3RT6jJRRVH8g--24">
          <mxGeometry relative="1" as="geometry" />
        </mxCell>
        <mxCell id="74QrzUO3RT6jJRRVH8g--19" value="按算法向外部持续输出数据（此时数据仍可输入）" style="rounded=1;whiteSpace=wrap;html=1;" vertex="1" parent="1">
          <mxGeometry x="320" y="1320" width="120" height="60" as="geometry" />
        </mxCell>
        <mxCell id="74QrzUO3RT6jJRRVH8g--22" value="输出全部数据" style="rounded=1;whiteSpace=wrap;html=1;" vertex="1" parent="1">
          <mxGeometry x="30" y="1460" width="120" height="60" as="geometry" />
        </mxCell>
        <mxCell id="74QrzUO3RT6jJRRVH8g--24" value="输出全部数据" style="rounded=1;whiteSpace=wrap;html=1;" vertex="1" parent="1">
          <mxGeometry x="320" y="1460" width="120" height="60" as="geometry" />
        </mxCell>
      </root>
    </mxGraphModel>
  </diagram>
</mxfile>
